<svg data-name="Layer 1" width="844" height="623.82843" xmlns="http://www.w3.org/2000/svg"><circle cx="83" cy="83" r="83" fill="#f0f0f0"/><circle cx="761" cy="269" r="83" fill="#f0f0f0"/><path d="m501.716 617.87116-14.5923-6.1443-10.01026-73.15138H343.80882L332.95844 611.428l-13.05511 6.52746a3.10016 3.10016 0 0 0 1.38657 5.873h179.22343a3.1 3.1 0 0 0 1.20267-5.9573z" fill="#e6e6e6"/><path d="M738.60741 548.30795H83.77821a12.97344 12.97344 0 0 1-12.9443-12.97332v-92.33952h680.7178v92.33952a12.97357 12.97357 0 0 1-12.9443 12.97332z" fill="#ccc"/><path d="M752.23622 486.63698h-682V91.5357a15.6572 15.6572 0 0 1 15.63964-15.63908h650.72053a15.65735 15.65735 0 0 1 15.63983 15.63908z" fill="#2e8555"/><path d="M711.50306 457.96048H110.96938a12.07023 12.07023 0 0 1-12.057-12.05666V116.62979a12.07088 12.07088 0 0 1 12.057-12.05741h600.53368a12.07088 12.07088 0 0 1 12.057 12.05741v329.274a12.07023 12.07023 0 0 1-12.057 12.05669z" fill="#fff"/><path d="M643.43332 399.34355H516.90707a1.208 1.208 0 0 1-1.30291-1.07809V296.20649a1.208 1.208 0 0 1 1.30291-1.07809h126.52625a1.20794 1.20794 0 0 1 1.3029 1.07809v102.059a1.20794 1.20794 0 0 1-1.3029 1.07806z" fill="#f0f0f0"/><path d="M629.68046 306.42022h-99.02054a1.30485 1.30485 0 0 0-1.3029 1.3029v76.72644a1.30487 1.30487 0 0 0 1.3029 1.30291h99.02054a1.30488 1.30488 0 0 0 1.30291-1.30291v-76.72644a1.30486 1.30486 0 0 0-1.30291-1.3029z" fill="#fff"/><circle cx="577.72394" cy="345.82138" r="12.59002" fill="#ffb8b8"/><path fill="#2e8555" d="M596.144 385.752H568.23l.912-20.522.217-.228 3.133-3.31h9.968l3.695 3.579.298.289 7.867 7.54z"/><path d="M573.03024 385.75247h-21.11857c-.052-4.63254-.081-7.40628-.081-7.40628l1.22175-.74411.006-.003h.003l13.45752-8.17064 2.82579-4.58912.0146.16214.831 9.67333s1.37227 4.43566 2.84015 11.07757zm35.49397 0h-22.36938c.33873-13.50966-1.48527-20.913-.54711-20.913l.54711.43142 6.59269 5.20581 8.689 3.18777h.006l5.99044 2.19755 1.051.38509v.49511c.003 1.18704.009 4.43272.0405 9.01025zM565.813 349.76039s1.06969-1.87855.821-8.15415c-.24869-6.2756 9.30754-2.72619 17.29277-3.32485 7.98523-.59866 6.2949 10.47726 6.2949 10.47726s.57608-.6584 1.80948-6.004c1.2334-5.3456-1.56707-10.67263-1.56707-10.67263-.82478-5.61719-5.26976-3.81688-5.26976-3.81688a2.33112 2.33112 0 0 1 1.72951 2.61519c-1.812-3.17689-6.257-1.37658-6.257-1.37658-5.92832-3.72017-11.93661 1.17882-11.93661 1.17882-7.16171 1.62539-2.96164 7.32079-2.96164 7.32079-7.20225 3.63977.0444 11.75703.0444 11.75703z" fill="#2f2e41"/><path d="M554.7318 385.75247h-8.67739a26.16263 26.16263 0 0 0 .006-3.21094c-.51827-2.06438 6.77224-4.85547 6.99221-4.93945l.006-.003h.003l1.38971.747zm55.35884 0h-9.11459l-1.13778-11.23391 1.27675-.93231s.11593.0261.32148.0782h.006a25.00318 25.00318 0 0 1 5.99044 2.19755 3.71136 3.71136 0 0 1 1.051.8802 1.08505 1.08505 0 0 1 .249.77015c-.0464.41983.4864 3.51205 1.3579 8.24014z" fill="#2f2e41"/><path d="M643.02115 269.12531H516.49489a1.20809 1.20809 0 0 1-1.3029-1.07847v-102.0953a1.2081 1.2081 0 0 1 1.3029-1.07848h126.52626a1.20807 1.20807 0 0 1 1.3029 1.07848v102.0953a1.20807 1.20807 0 0 1-1.3029 1.07847z" fill="#f0f0f0"/><path d="M629.26839 176.16513h-99.02055a1.30487 1.30487 0 0 0-1.3029 1.3029v76.72645a1.30487 1.30487 0 0 0 1.3029 1.3029h99.02055a1.30487 1.30487 0 0 0 1.3029-1.3029v-76.72645a1.30487 1.30487 0 0 0-1.3029-1.3029z" fill="#fff"/><path d="M604.13106 255.49738c.5588-2.01226.9931-3.74656 1.216-4.97419a3.54739 3.54739 0 0 0 .0203-1.14655c-.83386-5.93255-15.8954-10.94727-17.82659-11.56688l-.46615-5.16528-18.95859-2.04121-2.40024 6.60716-6.804 2.55079a3.24125 3.24125 0 0 0-.69778.359 3.36855 3.36855 0 0 0-1.38686 3.59312l2.89823 11.784h44.40579z" fill="#2e8555"/><path d="M564.82974 255.49738h-14.71123c.527-3.28332.999-6.18733 1.30587-8.03456 1.12336-6.723 6.02225-7.29626 6.78948-7.34257.0609-.006.0985-.006.10137-.006h3.0951zm39.30132 0h3.56706a11.608 11.608 0 0 0-2.33075-6.12074 7.31213 7.31213 0 0 0-2.55079-2.12228l-.26927-.11582-3.13565 8.35884z" fill="#2e8555"/><circle data-name="Ellipse 109" cx="576.85455" cy="213.68335" r="13.65055" fill="#a0616a"/><path data-name="Path 696" d="M567.69221 207.0329c1.41317 1.67235 3.80422 2.144 6.01022 2.33582a56.60977 56.60977 0 0 0 15.37277-1.255c.31444 3.02846-.539 6.2941 1.24427 8.78577a40.78807 40.78807 0 0 0 1.44911-9.24621 8.85594 8.85594 0 0 0-.51209-3.96009 3.64179 3.64179 0 0 0-3.10257-2.2873 7.776 7.776 0 0 1 3.46866-1.48234l-4.33426-2.17814 1.11311-1.14275-7.847-.48019 2.27292-1.4437a49.2841 49.2841 0 0 0-10.3288-.32475 8.85966 8.85966 0 0 0-4.56651 1.26942c-1.29549.92668-2.04429 2.76792-1.23978 4.12809a5.994 5.994 0 0 0-4.56785 3.62454 9.67644 9.67644 0 0 0-.34677 4.65141 32.96839 32.96839 0 0 0 1.72851 7.31332" fill="#2f2e41"/><path d="M177.73622 396.48908v-230.8611a2.75936 2.75936 0 0 1 2.98909-2.43867h290.27338a2.75942 2.75942 0 0 1 2.98909 2.43867v230.8611a2.75942 2.75942 0 0 1-2.98909 2.43867H180.72531a2.75936 2.75936 0 0 1-2.98909-2.43867z" fill="#e4e4e4"/><path d="M209.28745 192.08437v176.02391a2.99361 2.99361 0 0 0 2.98909 2.98909H439.447a2.9936 2.9936 0 0 0 2.98908-2.98909V192.08437a2.9936 2.9936 0 0 0-2.98908-2.98908H212.27654a2.9936 2.9936 0 0 0-2.98909 2.98908z" fill="#fff"/><path d="M303.51013 371.09737h45.71961l-2.84946-42.76385-16.49316 3.80609-16.04136-6.17082-.42521-.15941-.0266-.0133a.21456.21456 0 0 0-.0133.0399c-.25233 1.01634-5.28733 21.17604-9.87053 45.26144z" fill="#2e8555"/><path fill="#2f2e41" d="m275.957 335.315 4.271 35.782h38.533l-4.915-45.128-.047-.439-.378.279-.04.027-9.506 6.935zm66.51081 35.78237h34.50729l.49818-28.17049-25.39392-8.42258-5.69908-6.17078s-1.80023 18.56555-3.91247 42.76385z"/><path d="M259.34458 371.09737h28.59577l-1.83347-25.63309-10.14946-10.14958s-8.03074 16.84514-16.61284 35.78267zm109.49357 0h15.085c-.0665-8.21-.10638-13.88266-.10638-15.48346a14.952 14.952 0 0 0-6.34354-12.687l-7.61882 2.5374zm2.35332-56.2205H291.2581v-33.68975c0-11.546 8.13431-25.42745 18.13258-30.94445 14.03328-7.74228 29.37521-7.87832 42.09123-.37136a40.18354 40.18354 0 0 1 19.70956 34.4428z" fill="#2f2e41"/><circle cx="-90.59552" cy="428.80945" r="28.87125" transform="rotate(-61.337)" fill="#ffb8b8"/><path d="M360.25017 286.66509h-41.189l-.0976-.46779a65.962 65.962 0 0 0-1.845-7.26646 82.63745 82.63745 0 0 0-4.51887 7.43177l-.16788.30248h-8.00745a3.53543 3.53543 0 0 1-2.60984-1.15426c-.21782-.23992-.72751-.80126 1.38155-26.54669a3.55586 3.55586 0 0 1 2.01578-2.87731c18.07259-8.43678 36.38683-8.21351 54.43819.66695h.322l.11307.4477c3.5612 27.40248 3.04893 27.99424 2.83025 28.24679a3.52542 3.52542 0 0 1-2.66523 1.21682z" fill="#2f2e41"/></svg>