<svg version="1.1" id="Layer_1" xmlns="http://www.w3.org/2000/svg" x="0" y="0" viewBox="0 0 256 249" style="enable-background:new 0 0 256 249" xml:space="preserve"><style>.st12{fill:none;stroke:#00d8ff;stroke-width:3.8391;stroke-miterlimit:10}</style><path d="M142.1 191.1c0 31.8-25.8 57.6-57.6 57.6s-57.6-25.8-57.6-57.6 25.8-57.6 57.6-57.6 57.6 25.8 57.6 57.6" style="fill:#f60"/><path d="M256 110.5c0 31.8-25.8 57.6-57.6 57.6s-57.6-25.8-57.6-57.6 25.8-57.6 57.6-57.6S256 78.7 256 110.5" style="fill:#fc0"/><path d="M115.2 109.2c0 31.8-25.8 57.6-57.6 57.6S0 141 0 109.2s25.8-57.6 57.6-57.6 57.6 25.8 57.6 57.6" style="fill:#0089cc"/><path d="M230.4 191.1c0 31.8-25.8 57.6-57.6 57.6s-57.6-25.8-57.6-57.6 25.8-57.6 57.6-57.6 57.6 25.8 57.6 57.6" style="fill:#009939"/><path d="M185.6 58c0 31.8-25.8 57.6-57.6 57.6S70.4 89.8 70.4 58 96.2.4 128 .4s57.6 25.8 57.6 57.6" style="fill:#bf0000"/><path d="M140.8 110.5c0 1.2.1 2.4.2 3.6 25.5-5.9 44.6-28.7 44.6-56.1 0-1.2-.1-2.4-.2-3.6-25.5 5.9-44.6 28.7-44.6 56.1" style="fill:#fc0007"/><path d="M148.4 139c9.9 17.4 28.6 29.1 50 29.1 8.7 0 17-2 24.4-5.5-9.9-17.4-28.6-29.1-50-29.1-8.7 0-17 2-24.4 5.5" style="fill:#1cd306"/><path d="M115.2 191.1c0 14.1 5.1 26.9 13.4 36.9 8.4-10 13.4-22.9 13.4-36.9 0-14.1-5.1-26.9-13.4-36.9-8.3 9.9-13.4 22.8-13.4 36.9" style="fill:#0f7504"/><path d="M34.8 162.1c7 3 14.7 4.7 22.8 4.7 21.2 0 39.7-11.5 49.7-28.6-7-3-14.7-4.7-22.8-4.7-21.2 0-39.7 11.5-49.7 28.6" style="fill:#0c5e87"/><path d="M70.7 53.1c-.1 1.6-.2 3.2-.2 4.9 0 27.3 19 50.1 44.6 56.1.1-1.6.2-3.2.2-4.9-.1-27.3-19.1-50.2-44.6-56.1" style="fill:#6b0001"/><path d="M76.5 184h-9c-8 0-14.4-6.4-14.4-14.3V88.3C53 80.4 59.5 74 67.4 74h113.1c8 0 14.4 6.4 14.4 14.3v81.3c0 7.9-6.5 14.3-14.4 14.3H142l-77.3 37.7L76.5 184z" style="fill:#fff"/><circle cx="124.1" cy="129" r="8" style="fill:#00d8ff"/><path class="st12" d="M124.1 112.7c10.8 0 20.8 1.5 28.3 4.1 9.1 3.1 14.7 7.9 14.7 12.2 0 4.5-5.9 9.5-15.7 12.8-7.4 2.4-17.1 3.7-27.3 3.7-10.5 0-20.4-1.2-27.9-3.8-9.4-3.2-15.1-8.3-15.1-12.7 0-4.3 5.3-9 14.3-12.1 7.6-2.6 17.8-4.2 28.7-4.2z"/><path class="st12" d="M109.9 120.9c5.4-9.3 11.7-17.2 17.7-22.5 7.3-6.3 14.2-8.8 17.9-6.6 3.9 2.2 5.3 9.9 3.2 20-1.6 7.6-5.3 16.7-10.4 25.5-5.2 9.1-11.2 17.1-17.2 22.3-7.5 6.6-14.8 8.9-18.6 6.8-3.7-2.1-5.1-9.1-3.3-18.4 1.5-8 5.3-17.7 10.7-27.1z"/><path class="st12" d="M109.9 137.3c-5.4-9.3-9.1-18.8-10.6-26.6-1.8-9.4-.5-16.7 3.2-18.8 3.9-2.2 11.2.4 18.9 7.2 5.8 5.2 11.8 12.9 16.9 21.8 5.3 9.1 9.2 18.3 10.7 26 1.9 9.8.4 17.3-3.4 19.5-3.7 2.1-10.4-.1-17.6-6.3-6.1-5.3-12.6-13.4-18.1-22.8z"/></svg>